# xmcd
#
# Track frame offsets: 
#        150
#        11484
#        24520
#        38165
#        58411
#        73682
#        89849
#        102207
#        115075
#        132264
#        148885
#        167436
#        180004
#        197740
#        212877
#
# Disc length: 3022 seconds
#
# Revision: 4
# Processed by: cddbd v1.5.2PL0 Copyright (c) Steve Scherf et al.
# Submitted via: ExactAudioCopy v0.99pb5
#
DISCID=d40bcc0f
DTITLE=Various Artist - Classic Country - TL 626-27 - 1993 - 1996 - CD 1
DYEAR=2001
DGENRE=Country
TTITLE0=Alan Jackson - Tall, tall trees
TTITLE1=Pam Tillis - Mi vida loca (My crazy love)
TTITLE2=Trace Adkins - Every light in the house
TTITLE3=Dwight Yoakam - A thousand miles from nowhere
TTITLE4=Bryan White - Someone else's star
TTITLE5=Dolly Parton and Friends - Romeo
TTITLE6=Clint Black - A good run of bad luck
TTITLE7=Patty Loveless - I try to think about Elvis
TTITLE8=Doug Supernaw - I don't call him daddy
TTITLE9=Wade Hayes - Old enough to know better
TTITLE10=Collin Raye - One boy, one girl
TTITLE11=Tracy Lawrence - My second home
TTITLE12=John Michael Montgomery - I can love you like that
TTITLE13=John Berry - Your love amazes me
TTITLE14=Brooks and Dunn - Little Miss Honky Tonk
EXTD=
EXTT0=
EXTT1=
EXTT2=
EXTT3=
EXTT4=
EXTT5=
EXTT6=
EXTT7=
EXTT8=
EXTT9=
EXTT10=
EXTT11=
EXTT12=
EXTT13=
EXTT14=
PLAYORDER=
